<svg id="Layer_1" data-name="Layer 1" xmlns="http://www.w3.org/2000/svg" viewBox="0 0 482.41 163.72"><defs><style>.cls-1{fill:#3beae5;}</style></defs><title>Logo</title><path class="cls-1" d="M13.23,123.29a6.61,6.61,0,0,1-6.61,6.62h0A6.62,6.62,0,0,1,0,123.29V6.61A6.61,6.61,0,0,1,6.61,0h0a6.62,6.62,0,0,1,6.62,6.62v17A36.66,36.66,0,0,0,49.89,60.27h0A36.65,36.65,0,0,0,86.54,23.61v-17A6.62,6.62,0,0,1,93.16,0h0a6.61,6.61,0,0,1,6.61,6.61V123.29a6.61,6.61,0,0,1-6.61,6.62h0a6.62,6.62,0,0,1-6.62-6.62V109.05A36.65,36.65,0,0,0,49.89,72.4h0a36.65,36.65,0,0,0-36.66,36.65Z"/><path class="cls-1" d="M133.59,97.57V42.63a.48.48,0,0,1,.55-.55h11.39a.48.48,0,0,1,.55.55V95.92c0,19.1,9,25.17,22.23,25.17,16.17,0,28.85-10.11,28.85-27.75V42.63a.49.49,0,0,1,.55-.55h11.4a.49.49,0,0,1,.55.55v86.73a.49.49,0,0,1-.55.55H199a.49.49,0,0,1-.55-.55l-1.1-12.13c-7,9-15.81,15.07-30.69,15.07C147.92,132.3,133.59,121.46,133.59,97.57Z"/><path class="cls-1" d="M254.86,129.36a.49.49,0,0,1-.55.55H242.92a.49.49,0,0,1-.55-.55V42.63a.48.48,0,0,1,.55-.55h11.39a.48.48,0,0,1,.55.55V54.94c5.51-9,15.25-14.52,27.19-14.52,8.09,0,15.07,1.66,19.48,4,.74.36.55.73.55,1.28l-1.47,12.13c-.18.74-.36.74-.92.18-2.94-2.57-10.29-6.24-19.11-6.24-13.41,0-25.72,8.63-25.72,31.05Z"/><path class="cls-1" d="M337,129.36a.49.49,0,0,1-.56.55H325.05a.49.49,0,0,1-.55-.55V42.63a.48.48,0,0,1,.55-.55h11.39a.49.49,0,0,1,.56.55V54.94c5.51-9,15.25-14.52,27.19-14.52,8.08,0,15.07,1.66,19.48,4,.73.36.55.73.55,1.28l-1.47,12.13c-.19.74-.37.74-.92.18-2.94-2.57-10.29-6.24-19.11-6.24-13.41,0-25.72,8.63-25.72,31.05Z"/><path class="cls-1" d="M398.92,42.81c-.19-.36,0-.73.55-.73h12.86c.37,0,.55.18.74.55l29,64.13,27-64.31c.18-.37.37-.37.73-.37h12c.55,0,.73.18.55.73L429.23,163.17c-.18.36-.36.55-.73.55H417.11c-.55,0-.74-.19-.55-.74l18.37-42.44Z"/><rect class="cls-1" x="47.39" y="116.91" width="5" height="13"/><path class="cls-1" d="M52.39,96.13h-5V75.35h5Zm0-41.57h-5V33.78h5Z"/><rect class="cls-1" x="47.39" width="5" height="13"/></svg>